# xmcd
#
# Track frame offsets:
#	150
#	17243
#	31140
#	46332
#	64338
#	84552
#	103802
#	118493
#	134034
#	151942
#	171145
#	190348
#
# Disc length: 2804 seconds
#
# Revision: 1
# Processed by: cddbd v1.5.2PL0 Copyright (c) Steve Scherf et al.
# Submitted via: audiograbber 1.83.01
#
DISCID=aa0af20c
DTITLE=Dierks Bentley - Feel That Fire
DYEAR=2009
DGENRE=Country
TTITLE0=Life On The Run
TTITLE1=Sideways
TTITLE2=Feel That Fire
TTITLE3=I Wanna Make You Close Your Eyes
TTITLE4=Here She Comes
TTITLE5=I Can't Forget Her
TTITLE6=Beautiful World (feat. Patty Griffin)
TTITLE7=Little Heartwrecker
TTITLE8=You Hold Me Together
TTITLE9=Better Believer
TTITLE10=Pray
TTITLE11=Last Call (with Ronnie McCoury and Friends)
EXTD=
EXTT0=
EXTT1=
EXTT2=
EXTT3=
EXTT4=
EXTT5=
EXTT6=
EXTT7=
EXTT8=
EXTT9=
EXTT10=
EXTT11=
PLAYORDER=
